<?xml version="1.0" encoding="UTF-8" standalone="no"?>
<svg
   viewBox="0 0 1080 1080"
   width="1080"
   height="1080"
   preserveAspectRatio="xMidYMid meet"
   style="width: 100%; height: 100%; transform: translate3d(0px, 0px, 0px); content-visibility: visible;"
   version="1.1"
   id="svg43"
   sodipodi:docname="plant-3.svg"
   inkscape:version="1.4.2 (f4327f4, 2025-05-13)"
   xmlns:inkscape="http://www.inkscape.org/namespaces/inkscape"
   xmlns:sodipodi="http://sodipodi.sourceforge.net/DTD/sodipodi-0.dtd"
   xmlns="http://www.w3.org/2000/svg"
   xmlns:svg="http://www.w3.org/2000/svg">
  <sodipodi:namedview
     id="namedview43"
     pagecolor="#ffffff"
     bordercolor="#000000"
     borderopacity="0.25"
     inkscape:showpageshadow="2"
     inkscape:pageopacity="0.0"
     inkscape:pagecheckerboard="0"
     inkscape:deskcolor="#d1d1d1"
     inkscape:zoom="1.0490741"
     inkscape:cx="540"
     inkscape:cy="540"
     inkscape:window-width="2560"
     inkscape:window-height="1351"
     inkscape:window-x="-9"
     inkscape:window-y="-9"
     inkscape:window-maximized="1"
     inkscape:current-layer="g43" />
  <defs
     id="defs1">
    <clipPath
       id="__lottie_element_106">
      <rect
         width="1080"
         height="1080"
         x="0"
         y="0"
         id="rect1" />
    </clipPath>
  </defs>
  <g
     clip-path="url(#__lottie_element_106)"
     id="g43">
    <g
       transform="matrix(5,0,0,5,287.5,530.0020141601562)"
       opacity="1"
       style="display: block;"
       id="g2">
      <g
         opacity="1"
         transform="matrix(1,0,0,1,50.68600082397461,85.25900268554688)"
         id="g1">
        <path
           fill="rgb(87,34,20)"
           fill-opacity="1"
           d=" M-43.303001403808594,12.720000267028809 C-29.115999221801758,23.58799934387207 33.44599914550781,26.19300079345703 48.625,8.262999534606934 C50.54199981689453,5.985000133514404 42.70600128173828,-1.5640000104904175 35.26599884033203,-5.306000232696533 C31.52899932861328,-7.193999767303467 26.434999465942383,-6.218999862670898 25.643999099731445,-6.999000072479248 C23.197999954223633,-9.406000137329102 21.643999099731445,-16.371999740600586 17.906999588012695,-16.988000869750977 C14.82800006866455,-17.509000778198242 -2.364000082015991,-21.8700008392334 -2.694000005722046,-21.770999908447266 C-7.324999809265137,-20.308000564575195 -9.111000061035156,-18.288999557495117 -10.265999794006348,-18.354000091552734 C-11.555999755859375,-18.448999404907227 -16.548999786376953,-17.573999404907227 -20.020999908447266,-15.041000366210938 C-22.632999420166016,-13.121000289916992 -23.163000106811523,-7.816999912261963 -26.274999618530273,-8.272000312805176 C-33.45100021362305,-9.314000129699707 -37.518001556396484,-6.808000087738037 -37.518001556396484,-6.808000087738037 C-37.518001556396484,-6.808000087738037 -50.08399963378906,1.3919999599456787 -50.08399963378906,5.751999855041504 C-50.08399963378906,10.079000473022461 -43.30500030517578,12.71500015258789 -43.30500030517578,12.71500015258789 C-43.30500030517578,12.71500015258789 -43.303001403808594,12.720000267028809 -43.303001403808594,12.720000267028809z"
           id="path1" />
      </g>
    </g>
    <g
       transform="matrix(0.30000001192092896,-0.5196152925491333,0.5196152925491333,0.30000001192092896,296.7209167480469,794.9920043945312)"
       opacity="1"
       style="display: block;"
       id="g4">
      <g
         opacity="1"
         transform="matrix(1,0,0,1,-5,321)"
         id="g3">
        <path
           fill="rgb(87,34,20)"
           fill-opacity="1"
           d=" M0,-20 C11.045999526977539,-20 20,-11.045999526977539 20,0 C20,11.045999526977539 11.045999526977539,10.5 0,10.5 C-11.045999526977539,10.5 -25.172000885009766,9.760000228881836 -20,0 C-14.4350004196167,-10.5 -11.045999526977539,-20 0,-20z"
           id="path2" />
      </g>
    </g>
    <g
       transform="matrix(0.30000001192092896,0.5196152925491333,-0.5196152925491333,0.30000001192092896,761.8796997070312,781.2608032226562)"
       opacity="1"
       style="display: block;"
       id="g6">
      <g
         opacity="1"
         transform="matrix(1,0,0,1,-5,321)"
         id="g5">
        <path
           fill="rgb(87,34,20)"
           fill-opacity="1"
           d=" M0,-20 C11.045999526977539,-20 20,-11.045999526977539 20,0 C20,11.045999526977539 11.045999526977539,10.5 0,10.5 C-11.045999526977539,10.5 -25.172000885009766,9.760000228881836 -20,0 C-14.4350004196167,-10.5 -11.045999526977539,-20 0,-20z"
           id="path4" />
      </g>
    </g>
    <g
       transform="matrix(0.15000000596046448,-0.25980764627456665,0.25980764627456665,0.15000000596046448,430.0529479980469,816.3720092773438)"
       opacity="1"
       style="display: block;"
       id="g8">
      <g
         opacity="1"
         transform="matrix(1,0,0,1,-5,321)"
         id="g7">
        <path
           fill="rgb(87,34,20)"
           fill-opacity="1"
           d=" M0,-20 C11.045999526977539,-20 20,-11.045999526977539 20,0 C20,11.045999526977539 11.045999526977539,10.5 0,10.5 C-11.045999526977539,10.5 -25.172000885009766,9.760000228881836 -20,0 C-14.4350004196167,-10.5 -11.045999526977539,-20 0,-20z"
           id="path6" />
      </g>
    </g>
    <g
       id="plant">
      <g
         transform="matrix(5,0,0,5,287.5,520.001953125)"
         opacity="1"
         style="display: block;"
         id="g10">
        <g
           opacity="1"
           transform="matrix(1,0,0,1,52.90599822998047,26.06399917602539)"
           id="g9">
          <path
             fill="rgb(156,201,20)"
             fill-opacity="1"
             d=" M-5.419000148773193,1.253000020980835 C-6.183000087738037,3.49399995803833 -6.618000030517578,5.801000118255615 -6.7769999504089355,8.220999717712402 C-7.039000034332275,11.60200023651123 -7.105000019073486,15.178999900817871 -6.548999786376953,18.988000869750977 C-6.548999786376953,18.988000869750977 -3.306999921798706,18.52899932861328 -3.306999921798706,18.52899932861328 C-3.8310000896453857,14.916999816894531 -4.0920000076293945,11.569000244140625 -3.86299991607666,8.451000213623047 C-3.680999994277954,6.011000156402588 -3.2079999446868896,3.7130000591278076 -2.371999979019165,1.4950000047683716 C-0.012000000104308128,-0.13099999725818634 -5.690999984741211,-0.7879999876022339 -5.419000148773193,1.253000020980835z"
             id="path8" />
        </g>
      </g>
      <g
         transform="matrix(5,0,0,5,287.5,520.0020141601562)"
         opacity="1"
         style="display: block;"
         id="g12">
        <g
           opacity="1"
           transform="matrix(1,0,0,1,52.90599822998047,26.06399917602539)"
           id="g11">
          <path
             fill="rgb(156,201,20)"
             fill-opacity="1"
             d=" M4.190999984741211,-18.5939998626709 C3.2750000953674316,-18.98699951171875 -0.9819999933242798,-16.69099998474121 -3.927999973297119,-13.178000450134277 C-6.8429999351501465,-9.633999824523926 -6.941999912261963,-6.547999858856201 -6.451000213623047,-4.9079999923706055 C-6.131999969482422,-3.865000009536743 -5.690999984741211,-0.7879999876022339 -5.419000148773193,1.253000020980835 C-6.183000087738037,3.49399995803833 -3.2079999446868896,3.7130000591278076 -2.371999979019165,1.4950000047683716 C-0.012000000104308128,-0.13099999725818634 3.2039999961853027,-2.9179999828338623 4.650000095367432,-6.7789998054504395 C7.105999946594238,-13.246999740600586 5.144000053405762,-18.201000213623047 4.190999984741211,-18.5939998626709z"
             id="path10" />
        </g>
      </g>
      <g
         transform="matrix(5,0,0,5,287.5,520.001953125)"
         opacity="1"
         style="display: block;"
         id="g14">
        <g
           opacity="1"
           transform="matrix(1,0,0,1,70.27300262451172,30.73900032043457)"
           id="g13">
          <path
             fill="rgb(156,201,20)"
             fill-opacity="1"
             d=" M-15.133000373840332,2.063999891281128 C-17.045000076293945,3.7049999237060547 -19.173999786376953,5.550000190734863 -20.347999572753906,7.877999782562256 C-22.277999877929688,11.6850004196167 -23.26099967956543,16.115999221801758 -23.621000289916992,19.95599937438965 C-23.621000289916992,19.95599937438965 -20.24799919128418,23.417999267578125 -20.24799919128418,23.417999267578125 C-19.95199966430664,19.940000534057617 -19.13599967956543,12.734999656677246 -17.43199920654297,9.322999954223633 C-16.770000457763672,8.026000022888184 -15.986000061035156,6.818999767303467 -15.076000213623047,5.76200008392334 C-14.373000144958496,4.960999965667725 -14.072999954223633,2.2109999656677246 -15.133000373840332,2.063999891281128z"
             id="path12" />
        </g>
      </g>
      <g
         transform="matrix(5,0,0,5,287.5,520.001953125)"
         opacity="1"
         style="display: block;"
         id="g16">
        <g
           opacity="1"
           transform="matrix(1,0,0,1,70.27300262451172,30.73900032043457)"
           id="g15">
          <path
             fill="rgb(156,201,20)"
             fill-opacity="1"
             d=" M23.489999771118164,-18.77400016784668 C23.26099967956543,-20.218000411987305 21.42799949645996,-19.003000259399414 16.941999435424805,-18.117000579833984 C10.005000114440918,-16.77199935913086 3.0329999923706055,-19.888999938964844 -6.3979997634887695,-15.722000122070312 C-12.565999984741211,-12.982000350952148 -12.87600040435791,-4.613999843597412 -15.732999801635742,1.8140000104904175 C-17.645000457763672,3.4549999237060547 -15.986000061035156,6.818999767303467 -15.076000213623047,5.76200008392334 C-13.33899974822998,6.488999843597412 -10.112000465393066,7.574999809265137 -5.289000034332275,8.173999786376953 C11.802000045776367,10.274999618530273 15.107999801635742,-1.4110000133514404 20.773000717163086,-11.553999900817871 C22.999000549316406,-15.527000427246094 23.621000289916992,-17.985000610351562 23.489999771118164,-18.77400016784668z"
             id="path14" />
        </g>
      </g>
      <g
         transform="matrix(5,0,0,5,287.5,520.001953125)"
         opacity="1"
         style="display: block;"
         id="g21">
        <g
           opacity="1"
           transform="matrix(1,0,0,1,71.63400268554688,25.996999740600586)"
           id="g17">
          <path
             fill="rgb(130,180,47)"
             fill-opacity="1"
             d=" M-15.880000114440918,8.880000114440918 C-16.797000885009766,7.861999988555908 -13.359000205993652,5.00600004196167 -9.756999969482422,3.1029999256134033 C-2.128999948501587,-0.9670000076293945 12.015999794006348,-2.0850000381469727 16.797000885009766,-9.173999786376953 C15.12600040435791,-0.2800000011920929 -1.7350000143051147,0.4429999887943268 -8.449000358581543,4.184000015258789 C-11.95300006866455,6.1529998779296875 -15.588000297546387,9.173999786376953 -15.880000114440918,8.880000114440918z"
             id="path16" />
        </g>
        <g
           opacity="1"
           transform="matrix(1,0,0,1,77.83899688720703,16.593000411987305)"
           id="g18">
          <path
             fill="rgb(185,216,53)"
             fill-opacity="1"
             d=" M-4.370999813079834,-1.6419999599456787 C-2.9630000591278076,-1.6749999523162842 -1.2940000295639038,-1.378999948501587 0.4099999964237213,-1.4769999980926514 C5.2210001945495605,-1.7730000019073486 10.265000343322754,-2.36299991607666 10.329999923706055,-2.1989998817443848 C10.526000022888184,-1.3450000286102295 -1.3259999752044678,1.7059999704360962 -5.614999771118164,2.0350000858306885 C-9.871999740600586,2.36299991607666 -10.526000022888184,1.4769999980926514 -10.29800033569336,0.6230000257492065 C-9.83899974822998,-1.2799999713897705 -5.8460001945495605,-1.6089999675750732 -4.370999813079834,-1.6419999599456787z"
             id="path17" />
        </g>
        <g
           opacity="1"
           transform="matrix(1,0,0,1,70.25900268554688,31.610000610351562)"
           id="g19">
          <path
             fill="rgb(130,180,47)"
             fill-opacity="1"
             d=" M-6.810999870300293,-2.740999937057495 C-2.0959999561309814,-0.11500000208616257 2.8480000495910645,0.968999981880188 8.218000411987305,0.6729999780654907 C0.13099999725818634,2.740999937057495 -6.285999774932861,-0.4429999887943268 -8.218000411987305,-1.4950000047683716 C-8.218000411987305,-1.4950000047683716 -6.810999870300293,-2.740999937057495 -6.810999870300293,-2.740999937057495z"
             id="path18" />
        </g>
        <g
           opacity="1"
           transform="matrix(1,0,0,1,77.37000274658203,27.785999298095703)"
           id="g20">
          <path
             fill="rgb(130,180,47)"
             fill-opacity="1"
             d=" M-4.650000095367432,-2.1989998817443848 C-1.0490000247955322,-0.23100000619888306 2.684999942779541,0.5910000205039978 6.775000095367432,0.39399999380111694 C6.382999897003174,0.48899999260902405 5.991000175476074,0.5580000281333923 5.632999897003174,0.6230000257492065 C5.632999897003174,0.6230000257492065 5.698999881744385,0.6230000257492065 5.698999881744385,0.6230000257492065 C-0.4560000002384186,2.1989998817443848 -5.335000038146973,-0.23100000619888306 -6.775000095367432,-1.0180000066757202 C-6.775000095367432,-1.0180000066757202 -5.696000099182129,-1.9730000495910645 -5.696000099182129,-1.9730000495910645 C-5.5320000648498535,-1.8769999742507935 -5.4019999504089355,-1.809000015258789 -5.236999988555908,-1.7109999656677246 C-5.236999988555908,-1.7109999656677246 -4.650000095367432,-2.1989998817443848 -4.650000095367432,-2.1989998817443848z"
             id="path19" />
        </g>
      </g>
      <g
         transform="matrix(5,0,0,5,287.5,520.001953125)"
         opacity="1"
         style="display: block;"
         id="g23">
        <g
           opacity="1"
           transform="matrix(1,0,0,1,28.194000244140625,40.766998291015625)"
           id="g22">
          <path
             fill="rgb(156,201,20)"
             fill-opacity="1"
             d=" M14.524999618530273,-7.486000061035156 C14.859999656677246,-9.312999725341797 12.246999740600586,-4.392000198364258 12.82699966430664,-4.0960001945495605 C16.906999588012695,3.119999885559082 17.277999877929688,22.073999404907227 16.958999633789062,31.55900001525879 C16.958999633789062,31.55900001525879 16.959999084472656,31.56100082397461 16.959999084472656,31.56100082397461 C16.797000885009766,35.98899841308594 25.368000030517578,35.92399978637695 25.433000564575195,31.6560001373291 C25.64699935913086,21.09600067138672 20.364999771118164,-0.44699999690055847 14.524999618530273,-7.486000061035156z"
             id="path21" />
        </g>
      </g>
      <g
         transform="matrix(5,0,0,5,287.5,520.001953125)"
         opacity="1"
         style="display: block;"
         id="g25">
        <g
           opacity="1"
           transform="matrix(1,0,0,1,28.194000244140625,40.766998291015625)"
           id="g24">
          <path
             fill="rgb(156,201,20)"
             fill-opacity="1"
             d=" M14.524999618530273,-7.486000061035156 C14.859999656677246,-9.312999725341797 14.86299991607666,-11.918000221252441 13.843000411987305,-15.475000381469727 C11.484999656677246,-23.812000274658203 -2.1679999828338623,-27.979000091552734 -6.914999961853027,-28.93400001525879 C-11.49899959564209,-29.885000228881836 -20.895999908447266,-35.3650016784668 -22.566999435424805,-35.72700119018555 C-23.482999801635742,-35.92399978637695 -25.250999450683594,-35.98899841308594 -25.218000411987305,-35.20199966430664 C-25.09000015258789,-33.26499938964844 -25.64699935913086,-30.441999435424805 -25.12299919128418,-27.718000411987305 C-24.010000228881836,-22.035999298095703 -21.29199981689453,-15.968999862670898 -20.506000518798828,-14.491999626159668 C-14.02400016784668,-2.247999906539917 0.0560000017285347,-6.318999767303467 5.686999797821045,-5.729000091552734 C10.281000137329102,-5.2230000495910645 12.246999740600586,-4.392000198364258 12.82699966430664,-4.0960001945495605 C13.505999565124512,-3.816999912261963 14.656000137329102,-4.76800012588501 14.524999618530273,-7.486000061035156z"
             id="path23" />
        </g>
      </g>
      <g
         transform="matrix(5,0,0,5,287.5,520.001953125)"
         opacity="1"
         style="display: block;"
         id="g30">
        <g
           opacity="1"
           transform="matrix(1,0,0,1,26.336000442504883,25.225000381469727)"
           id="g26">
          <path
             fill="rgb(130,180,47)"
             fill-opacity="1"
             d=" M13.472999572753906,9.321999549865723 C13.472999572753906,9.321999549865723 11.282999992370605,7.715000152587891 10.88700008392334,7.451000213623047 C6.89300012588501,4.6620001792907715 0.2160000056028366,3.5450000762939453 -4.502999782562256,0.13300000131130219 C-8.824000358581543,-3.0190000534057617 -13.89799976348877,-7.876999855041504 -12.718999862670898,-9.090999603271484 C-12.52299976348877,-9.321000099182129 -8.527999877929688,-5.052999973297119 -4.436999797821045,-1.8700000047683716 C0.3109999895095825,1.871999979019165 6.664000034332275,2.7249999046325684 11.050999641418457,5.9730000495910645 C12.720999717712402,7.2220001220703125 13.89799976348877,8.699000358581543 13.472999572753906,9.321999549865723z"
             id="path25" />
        </g>
        <g
           opacity="1"
           transform="matrix(1,0,0,1,26.95800018310547,20.89299964904785)"
           id="g27">
          <path
             fill="rgb(185,216,53)"
             fill-opacity="1"
             d=" M3.5190000534057617,4.072000026702881 C3.127000093460083,3.743000030517578 -4.435999870300293,-0.035999998450279236 -7.677999973297119,-3.2829999923706055 C-10.920000076293945,-6.53000020980835 -12.425999641418457,-7.78000020980835 -11.246999740600586,-7.682000160217285 C-10.069000244140625,-7.583000183105469 5.908999919891357,-3.384000062942505 9.151000022888184,1.0490000247955322 C12.425999641418457,5.51800012588501 12.131999969482422,7.7789998054504395 12.131999969482422,7.7789998054504395 C12.131999969482422,7.7789998054504395 3.5190000534057617,4.072000026702881 3.5190000534057617,4.072000026702881z"
             id="path26" />
        </g>
        <g
           opacity="1"
           transform="matrix(1,0,0,1,23.025999069213867,29.280000686645508)"
           id="g28">
          <path
             fill="rgb(130,180,47)"
             fill-opacity="1"
             d=" M5.585000038146973,-1.3630000352859497 C5.585000038146973,-1.3630000352859497 -4.663000106811523,0.6740000247955322 -6.072000026702881,0.6740000247955322 C-7.480999946594238,0.6740000247955322 -4.63100004196167,1.3630000352859497 1.0980000495910645,0.6740000247955322 C6.828000068664551,-0.04899999871850014 7.48199987411499,-0.4429999887943268 7.48199987411499,-0.4429999887943268 C7.48199987411499,-0.4429999887943268 5.585000038146973,-1.3630000352859497 5.585000038146973,-1.3630000352859497z"
             id="path27" />
        </g>
        <g
           opacity="1"
           transform="matrix(1,0,0,1,15.319000244140625,23.749000549316406)"
           id="g29">
          <path
             fill="rgb(130,180,47)"
             fill-opacity="1"
             d=" M5.23799991607666,-0.5590000152587891 C5.23799991607666,-0.5590000152587891 -2.6519999504089355,-0.10000000149011612 -4.289000034332275,-0.5270000100135803 C-5.926000118255615,-0.9210000038146973 -6.254000186920166,-1.0180000066757202 -6.254000186920166,-1.0180000066757202 C-6.254000186920166,-1.0180000066757202 -5.010000228881836,0.492000013589859 -0.0010000000474974513,0.7549999952316284 C5.007999897003174,1.0180000066757202 6.254000186920166,0.8510000109672546 6.254000186920166,0.8510000109672546 C6.254000186920166,0.8510000109672546 5.23799991607666,-0.5590000152587891 5.23799991607666,-0.5590000152587891z"
             id="path28" />
        </g>
      </g>
    </g>
    <g
       transform="matrix(0.800000011920929,0,0,0.800000011920929,521.8258056640625,612.5003662109375)"
       opacity="1"
       style="display: block;"
       id="g32">
      <g
         opacity="1"
         transform="matrix(1,0,0,1,-5,321)"
         id="g31">
        <path
           fill="rgb(87,34,20)"
           fill-opacity="1"
           d=" M0,-20 C11.045999526977539,-20 20,-11.045999526977539 20,0 C20,11.045999526977539 11.045999526977539,10.5 0,10.5 C-11.045999526977539,10.5 -25.172000885009766,9.760000228881836 -20,0 C-14.4350004196167,-10.5 -11.045999526977539,-20 0,-20z"
           id="path30" />
      </g>
    </g>
    <g
       transform="matrix(-0.9396926164627075,-0.3420201539993286,0.3420201539993286,-0.9396926164627075,438.25421142578125,1169.2830810546875)"
       opacity="1"
       style="display: block;"
       id="g34">
      <g
         opacity="1"
         transform="matrix(1,0,0,1,-5,321)"
         id="g33">
        <path
           fill="rgb(87,34,20)"
           fill-opacity="1"
           d=" M-1.812000036239624,-14.003999710083008 C9.234000205993652,-14.003999710083008 20,-11.045999526977539 20,0 C20,11.045999526977539 11.045999526977539,10.5 0,10.5 C-11.045999526977539,10.5 -16.761999130249023,10.5600004196167 -20,0 C-24.03499984741211,-13.159000396728516 -12.857999801635742,-14.003999710083008 -1.812000036239624,-14.003999710083008z"
           id="path32" />
      </g>
    </g>
    <g
       transform="matrix(5,0,0,5,287.5,530.0020141601562)"
       opacity="1"
       style="display: block;"
       id="g42">
      <g
         opacity="1"
         transform="matrix(1,0,0,1,40.48699951171875,78.97599792480469)"
         id="g35">
        <path
           fill="rgb(129,53,29)"
           fill-opacity="1"
           d=" M-17.033000946044922,6.2789998054504395 C-17.033000946044922,6.2789998054504395 -15.21399974822998,3.4170000553131104 -13.592000007629395,3.4820001125335693 C-12.576000213623047,3.5220000743865967 -11.57699966430664,3.753000020980835 -10.649999618530273,4.164999961853027 C-10.649999618530273,4.164999961853027 -10.682999610900879,0.8790000081062317 -8.336000442504883,-0.09600000083446503 C-6.020999908447266,-1.0429999828338623 -4.895999908447266,-0.6169999837875366 -4.895999908447266,-0.6169999837875366 C-4.895999908447266,-0.6169999837875366 -4.800000190734863,-3.2200000286102295 -3.805000066757202,-4.390999794006348 C-2.7799999713897705,-5.5269999504089355 -1.2920000553131104,-5.368000030517578 -1.2920000553131104,-5.368000030517578 C-1.2920000553131104,-5.368000030517578 0.9919999837875366,-6.864999771118164 1.9149999618530273,-8.006999969482422 C2.877000093460083,-9.178999900817871 5.091000080108643,-9.994000434875488 5.421999931335449,-9.829000473022461 C5.783999919891357,-9.666000366210938 7.702000141143799,-12.107000350952148 8.595999717712402,-12.107000350952148 C9.489999771118164,-12.107000350952148 10.616999626159668,-10.869999885559082 10.616999626159668,-10.869999885559082 C10.616999626159668,-10.869999885559082 17.033000946044922,-5.958000183105469 17.033000946044922,-5.958000183105469 C15.982000350952148,-5.757999897003174 14.942999839782715,-5.497000217437744 13.923999786376953,-5.176000118255615 C12.13700008392334,-4.65500020980835 11.510000228881836,-3.38700008392334 11.510000228881836,-3.38700008392334 C11.510000228881836,-3.38700008392334 8.829999923706055,-5.078000068664551 7.372000217437744,-5.078000068664551 C5.951000213623047,-5.078000068664551 5.159999847412109,-3.5160000324249268 5.159999847412109,-3.5160000324249268 C5.159999847412109,-3.5160000324249268 9.031000137329102,-2.703000068664551 9.888999938964844,-1.9220000505447388 C10.715999603271484,-1.1740000247955322 11.77299976348877,0.8759999871253967 11.77299976348877,0.8759999871253967 C11.77299976348877,0.8759999871253967 4.86299991607666,1.9490000009536743 4.002999782562256,2.01200008392334 C3.1440000534057617,2.0739998817443848 1.4520000219345093,4.395999908447266 1.4520000219345093,4.395999908447266 C1.4520000219345093,4.395999908447266 4.560999870300293,5.243000030517578 5.619999885559082,6.122000217437744 C6.314000129699707,6.706999778747559 7.172999858856201,7.943999767303467 7.702000141143799,8.758000373840332 C6.1479997634887695,8.072999954223633 4.296999931335449,7.651000022888184 2.9749999046325684,8.270000457763672 C1.9819999933242798,8.725000381469727 1.0230000019073486,9.602999687194824 0.2619999945163727,10.482000350952148 C-0.0949999988079071,10.524999618530273 -0.4480000138282776,10.590999603271484 -0.796999990940094,10.678000450134277 C-2.4170000553131104,11.098999977111816 -3.875999927520752,12.107000350952148 -3.875999927520752,12.107000350952148 C-3.875999927520752,12.107000350952148 -5.659999847412109,9.439000129699707 -7.38100004196167,8.494999885559082 C-9.10099983215332,7.519999980926514 -14.258000373840332,8.88700008392334 -14.258000373840332,8.88700008392334 C-14.258000373840332,8.88700008392334 -17.033000946044922,6.2789998054504395 -17.033000946044922,6.2789998054504395z"
           id="path34" />
      </g>
      <g
         opacity="1"
         transform="matrix(1,0,0,1,17.172000885009766,89.64700317382812)"
         id="g36">
        <path
           fill="rgb(129,53,29)"
           fill-opacity="1"
           d=" M-1.8519999980926514,-2.9609999656677246 C-1.8519999980926514,-2.9609999656677246 2.7780001163482666,-2.9609999656677246 4.629000186920166,-1.496999979019165 C6.447999954223633,-0.032999999821186066 6.876999855041504,2.9609999656677246 6.876999855041504,2.9609999656677246 C6.876999855041504,2.9609999656677246 2.6110000610351562,0.19599999487400055 -1.819000005722046,-0.2290000021457672 C-6.25,-0.652999997138977 -6.876999855041504,-0.42399999499320984 -6.876999855041504,-0.42399999499320984 C-6.876999855041504,-0.42399999499320984 -1.8519999980926514,-2.9609999656677246 -1.8519999980926514,-2.9609999656677246z"
           id="path35" />
      </g>
      <g
         opacity="1"
         transform="matrix(1,0,0,1,31.788000106811523,91.95999908447266)"
         id="g37">
        <path
           fill="rgb(129,53,29)"
           fill-opacity="1"
           d=" M2.546999931335449,-0.8790000081062317 C5.88700008392334,1.2990000247955322 6.381999969482422,4.361000061035156 6.381999969482422,4.361000061035156 C6.381999969482422,4.361000061035156 1.2890000343322754,0.7490000128746033 -1.4880000352859497,1.1050000190734863 C-4.23199987411499,1.4320000410079956 -6.381999969482422,2.7330000400543213 -6.381999969482422,2.7330000400543213 C-4.729000091552734,-1.1710000038146973 -2.7780001163482666,-4.361000061035156 2.546999931335449,-0.8790000081062317z"
           id="path36" />
      </g>
      <g
         opacity="1"
         transform="matrix(1,0,0,1,46.88199996948242,92.38300323486328)"
         id="g38">
        <path
           fill="rgb(129,53,29)"
           fill-opacity="1"
           d=" M-6.5960001945495605,3.0910000801086426 C-6.5960001945495605,3.0910000801086426 -4.480000019073486,-0.7160000205039978 -1.9019999504089355,-1.8880000114440918 C0.6769999861717224,-3.0910000801086426 5.175000190734863,-0.39100000262260437 5.9019999504089355,0.6819999814033508 C6.5960001945495605,1.7569999694824219 0.11699999868869781,0.4869999885559082 -2.0999999046325684,1.3660000562667847 C-4.316999912261963,2.244999885559082 -6.5960001945495605,3.0910000801086426 -6.5960001945495605,3.0910000801086426z"
           id="path37" />
      </g>
      <g
         opacity="1"
         transform="matrix(1,0,0,1,52.66999816894531,84.02100372314453)"
         id="g39">
        <path
           fill="rgb(129,53,29)"
           fill-opacity="1"
           d=" M-4.876999855041504,-0.8460000157356262 C-4.876999855041504,-0.8460000157356262 -1.5089999437332153,-2.864000082015991 0.9089999794960022,-2.0829999446868896 C3.322000026702881,-1.2699999809265137 4.876999855041504,2.864000082015991 4.876999855041504,2.864000082015991 C4.876999855041504,2.864000082015991 0.5479999780654907,0.8450000286102295 -1.0420000553131104,0.2280000001192093 C-2.5959999561309814,-0.38999998569488525 -4.876999855041504,-0.8460000157356262 -4.876999855041504,-0.8460000157356262z"
           id="path38" />
      </g>
      <g
         opacity="1"
         transform="matrix(1,0,0,1,80.18199920654297,91.19499969482422)"
         id="g40">
        <path
           fill="rgb(129,53,29)"
           fill-opacity="1"
           d=" M-6.697000026702881,1.218999981880188 C-6.697000026702881,1.218999981880188 -2.8949999809265137,-2.9130001068115234 0.7120000123977661,-2 C4.2820000648498535,-1.0889999866485596 6.697000026702881,2.9130001068115234 6.697000026702881,2.9130001068115234 C6.697000026702881,2.9130001068115234 -0.5109999775886536,1.2200000286102295 -2.8929998874664307,1.090000033378601 C-5.2729997634887695,0.9959999918937683 -6.695000171661377,1.2200000286102295 -6.695000171661377,1.2200000286102295 C-6.695000171661377,1.2200000286102295 -6.697000026702881,1.218999981880188 -6.697000026702881,1.218999981880188z"
           id="path39" />
      </g>
      <g
         opacity="1"
         transform="matrix(1,0,0,1,66.55799865722656,97.13400268554688)"
         id="g41">
        <path
           fill="rgb(129,53,29)"
           fill-opacity="1"
           d=" M-5.638000011444092,-0.39100000262260437 C-5.638000011444092,-0.39100000262260437 0.04899999871850014,-2.2780001163482666 2.628999948501587,-0.781000018119812 C5.242000102996826,0.7160000205039978 5.638000011444092,2.2780001163482666 5.638000011444092,2.2780001163482666 C5.638000011444092,2.2780001163482666 2.265000104904175,1.0089999437332153 -0.8759999871253967,0.28999999165534973 C-3.984999895095825,-0.42500001192092896 -5.638000011444092,-0.3930000066757202 -5.638000011444092,-0.3930000066757202 C-5.638000011444092,-0.3930000066757202 -5.638000011444092,-0.39100000262260437 -5.638000011444092,-0.39100000262260437z"
           id="path40" />
      </g>
    </g>
  </g>
</svg>
